<svg xmlns="http://www.w3.org/2000/svg" width="32" height="32" viewBox="0 0 32 32" fill="none">
  <rect width="32" height="32" rx="6" fill="#3B82F6"/>
  <path d="M16 8C11.5817 8 8 11.5817 8 16C8 20.4183 11.5817 24 16 24C20.4183 24 24 20.4183 24 16C24 11.5817 20.4183 8 16 8ZM16 22C12.6863 22 10 19.3137 10 16C10 12.6863 12.6863 10 16 10C19.3137 10 22 12.6863 22 16C22 19.3137 19.3137 22 16 22Z" fill="white"/>
  <path d="M16 12C14.3431 12 13 13.3431 13 15C13 16.6569 14.3431 18 16 18C17.6569 18 19 16.6569 19 15C19 13.3431 17.6569 12 16 12ZM16 16C15.4477 16 15 15.5523 15 15C15 14.4477 15.4477 14 16 14C16.5523 14 17 14.4477 17 15C17 15.5523 16.5523 16 16 16Z" fill="white"/>
  <path d="M16 6C15.4477 6 15 6.44772 15 7V9C15 9.55228 15.4477 10 16 10C16.5523 10 17 9.55228 17 9V7C17 6.44772 16.5523 6 16 6Z" fill="white"/>
  <path d="M16 22C15.4477 22 15 22.4477 15 23V25C15 25.5523 15.4477 26 16 26C16.5523 26 17 25.5523 17 25V23C17 22.4477 16.5523 22 16 22Z" fill="white"/>
  <path d="M7 15C6.44772 15 6 15.4477 6 16C6 16.5523 6.44772 17 7 17H9C9.55228 17 10 16.5523 10 16C10 15.4477 9.55228 15 9 15H7Z" fill="white"/>
  <path d="M22 15C21.4477 15 21 15.4477 21 16C21 16.5523 21.4477 17 22 17H25C25.5523 17 26 16.5523 26 16C26 15.4477 25.5523 15 25 15H22Z" fill="white"/>
</svg>

